<?xml version="1.0" encoding="UTF-8" standalone="no"?>
<svg
   id="Layer"
   height="256"
   viewBox="0 0 12 12"
   width="256"
   version="1.1"
   sodipodi:docname="icon-dev.svg"
   inkscape:version="1.3.1 (91b66b0783, 2023-11-16)"
   xml:space="preserve"
   inkscape:export-filename="icon.png"
   inkscape:export-xdpi="96"
   inkscape:export-ydpi="96"
   xmlns:inkscape="http://www.inkscape.org/namespaces/inkscape"
   xmlns:sodipodi="http://sodipodi.sourceforge.net/DTD/sodipodi-0.dtd"
   xmlns="http://www.w3.org/2000/svg"
   xmlns:svg="http://www.w3.org/2000/svg"><defs
     id="defs3"><inkscape:path-effect
       effect="fillet_chamfer"
       id="path-effect2"
       is_visible="true"
       lpeversion="1"
       nodesatellites_param="F,0,0,1,0,0.5,0,1 @ F,0,0,1,0,0.5,0,1 @ F,0,0,1,0,0.5,0,1 @ F,0,0,1,0,0.5,0,1"
       radius="0.5"
       unit="px"
       method="auto"
       mode="F"
       chamfer_steps="1"
       flexible="false"
       use_knot_distance="true"
       apply_no_radius="true"
       apply_with_radius="true"
       only_selected="false"
       hide_knots="false" /><inkscape:path-effect
       effect="fillet_chamfer"
       id="path-effect1"
       is_visible="true"
       lpeversion="1"
       nodesatellites_param="F,0,0,1,0,100,0,1 @ F,0,0,1,0,100,0,1 @ F,0,0,1,0,100,0,1 @ F,0,0,1,0,100,0,1"
       radius="100"
       unit="px"
       method="auto"
       mode="F"
       chamfer_steps="1"
       flexible="false"
       use_knot_distance="true"
       apply_no_radius="true"
       apply_with_radius="true"
       only_selected="false"
       hide_knots="false" /></defs><sodipodi:namedview
     id="namedview3"
     pagecolor="#ffffff"
     bordercolor="#000000"
     borderopacity="0.25"
     inkscape:showpageshadow="2"
     inkscape:pageopacity="0.0"
     inkscape:pagecheckerboard="true"
     inkscape:deskcolor="#d1d1d1"
     inkscape:zoom="0.79394531"
     inkscape:cx="-209.08241"
     inkscape:cy="265.13161"
     inkscape:window-width="1920"
     inkscape:window-height="1009"
     inkscape:window-x="-8"
     inkscape:window-y="-8"
     inkscape:window-maximized="1"
     inkscape:current-layer="Layer"
     showgrid="false"><inkscape:grid
       id="grid1"
       units="px"
       originx="0"
       originy="0"
       spacingx="0.046875"
       spacingy="0.046875"
       empcolor="#0099e5"
       empopacity="0.30196078"
       color="#0099e5"
       opacity="0.14901961"
       empspacing="5"
       dotted="false"
       gridanglex="30"
       gridanglez="30"
       visible="false"
       snapvisiblegridlinesonly="true" /></sodipodi:namedview><g
     id="code"
     fill="#396ce8"
     transform="matrix(0.60001281,0,0,0.60001281,-1.2001537,-1.1998498)"
     inkscape:label="icon"><path
       d="M 7,17 A 1,1 0 0 1 6.293,16.707 l -4,-4 a 1,1 0 0 1 0,-1.414 l 4,-4 A 1,1 0 1 1 7.707,8.707 L 4.414,12 7.707,15.293 A 1,1 0 0 1 7,17 Z"
       id="path1"
       inkscape:label="lt" /><path
       d="M 17,17 A 1,1 0 0 1 16.293,15.293 L 19.586,12 16.293,8.707 a 1,1 0 1 1 1.414,-1.414 l 4,4 a 1,1 0 0 1 0,1.414 l -4,4 A 1,1 0 0 1 17,17 Z"
       id="path2"
       inkscape:label="gt" /><path
       d="M 9,21 A 0.984,0.984 0 0 1 8.649,20.936 1,1 0 0 1 8.063,19.649 l 6,-16 a 1.0002345,1.0002345 0 0 1 1.874,0.7 l -6,16 A 1,1 0 0 1 9,21 Z"
       opacity="0.4"
       id="path3"
       inkscape:label="slash" /></g><g
     id="g3"
     transform="translate(-8.5522463,-5.6758296)"
     inkscape:label="badge"
     style="display:inline"><path
       style="fill:#ffc225;fill-opacity:1;stroke-width:0.0584353"
       id="rect1"
       width="7.5151501"
       height="3.7573202"
       x="13.981746"
       y="14.361314"
       sodipodi:type="rect"
       inkscape:path-effect="#path-effect2"
       d="m 14.481746,14.361314 h 6.51515 a 0.5,0.5 45 0 1 0.5,0.5 v 2.75732 a 0.5,0.5 135 0 1 -0.5,0.5 h -6.51515 a 0.5,0.5 45 0 1 -0.5,-0.5 v -2.75732 a 0.5,0.5 135 0 1 0.5,-0.5 z"
       transform="translate(-0.94464945,-0.44280443)"
       inkscape:label="rect" /><text
       xml:space="preserve"
       style="font-style:normal;font-variant:normal;font-weight:bold;font-stretch:normal;font-size:2.625px;font-family:'Meiryo UI';-inkscape-font-specification:'Meiryo UI Bold';fill:#000000;fill-opacity:1;stroke-width:0.046875"
       x="13.833215"
       y="16.762959"
       id="text3"
       inkscape:label="text"><tspan
         sodipodi:role="line"
         id="tspan3"
         style="font-size:2.625px;stroke-width:0.046875"
         x="13.833215"
         y="16.762959">DEV</tspan></text></g></svg>
